<svg xmlns="http://www.w3.org/2000/svg" viewBox="90 -15 220 215" stroke="#13065f" fill="#003675" stroke-width="1" stroke-linecap="square">
  <!-- big W -->
  <path d="M100,10 L140,10 L140,30 L150,30 L150,70 L160,70 L160,90 L170,90 L170,60 L180,60 L180,30 L190,30 L190,10 L210,10 L210,30 L220,30 L220,60 L230,60 L230,90 L240,90 L240,70 L250,70 L250,30 L260,30 L260,10 L300,10 L300,30 L290,30 L290,70 L280,70 L280,130 L270,130 L270,160 L260,160 L260,170 L230,170 L230,160 L220,160 L220,140 L210,140 L210,130 L190,130 L190,140 L180,140 L180,160 L170,160 L170,170 L140,170 L140,160 L130,160 L130,130 L120,130 L120,70 L110,70 L110,30 L100,30 L100,10" fill="#c8ceea"  />
</svg>